<svg width="1653" height="993" xmlns="http://www.w3.org/2000/svg" xmlns:xlink="http://www.w3.org/1999/xlink" overflow="hidden"><defs><clipPath id="clip0"><rect x="996" y="179" width="1653" height="993"/></clipPath><clipPath id="clip1"><rect x="996" y="180" width="1650" height="990"/></clipPath><clipPath id="clip2"><rect x="996" y="180" width="1650" height="990"/></clipPath><clipPath id="clip3"><rect x="1106" y="379" width="1493" height="583"/></clipPath><clipPath id="clip4"><rect x="1106" y="379" width="1493" height="583"/></clipPath><clipPath id="clip5"><rect x="996" y="180" width="1650" height="990"/></clipPath><clipPath id="clip6"><rect x="996" y="180" width="1650" height="990"/></clipPath><clipPath id="clip7"><rect x="996" y="180" width="1650" height="990"/></clipPath><clipPath id="clip8"><rect x="996" y="180" width="1650" height="990"/></clipPath><clipPath id="clip9"><rect x="996" y="180" width="1650" height="990"/></clipPath><clipPath id="clip10"><rect x="996" y="180" width="1650" height="990"/></clipPath><clipPath id="clip11"><rect x="996" y="180" width="1650" height="990"/></clipPath><clipPath id="clip12"><rect x="996" y="180" width="1650" height="990"/></clipPath><clipPath id="clip13"><rect x="996" y="180" width="1650" height="990"/></clipPath><clipPath id="clip14"><rect x="996" y="180" width="1650" height="990"/></clipPath><clipPath id="clip15"><rect x="996" y="180" width="1650" height="990"/></clipPath><clipPath id="clip16"><rect x="996" y="180" width="1650" height="990"/></clipPath><clipPath id="clip17"><rect x="996" y="180" width="1650" height="990"/></clipPath><clipPath id="clip18"><rect x="996" y="180" width="1650" height="990"/></clipPath><clipPath id="clip19"><rect x="996" y="180" width="1650" height="990"/></clipPath><clipPath id="clip20"><rect x="996" y="180" width="1650" height="990"/></clipPath><clipPath id="clip21"><rect x="996" y="180" width="1650" height="990"/></clipPath><clipPath id="clip22"><rect x="996" y="180" width="1650" height="990"/></clipPath><clipPath id="clip23"><rect x="996" y="180" width="1650" height="990"/></clipPath><clipPath id="clip24"><rect x="996" y="180" width="1650" height="990"/></clipPath><clipPath id="clip25"><rect x="996" y="180" width="1650" height="990"/></clipPath></defs><g clip-path="url(#clip0)" transform="translate(-996 -179)"><rect x="997" y="180" width="1650" height="990" fill="#FFFFFF"/><g clip-path="url(#clip1)"><path d="M1106.5 876.529 2596.5 876.529M1106.5 793.526 2596.5 793.526M1106.5 710.523 2596.5 710.523M1106.5 627.521 2596.5 627.521M1106.5 545.518 2596.5 545.518M1106.5 462.515 2596.5 462.515M1106.5 379.5 2596.5 379.5" stroke="#D9D9D9" stroke-width="3.4375" stroke-linejoin="round" stroke-miterlimit="10" fill="none"/></g><g clip-path="url(#clip2)"><path d="M1106.5 959.5 2596.5 959.5" stroke="#D9D9D9" stroke-width="3.4375" stroke-linejoin="round" stroke-miterlimit="10" fill="none" fill-rule="evenodd"/></g><g clip-path="url(#clip3)"><path d="M1213 661.022 1426.05 628.021 1639.05 628.021 1852.06 628.021 2064.07 611 2277.07 678 2490 645.021" stroke="#5B9BD5" stroke-width="10.3125" stroke-linecap="round" stroke-linejoin="round" stroke-miterlimit="10" fill="none"/></g><g clip-path="url(#clip4)"><path d="M1213 529 1426.05 495.016 1639.05 512.017 1852.06 479 2064.07 495.016 2277.07 512.017 2490 495.016" stroke="#ED7D31" stroke-width="10.3125" stroke-linecap="round" stroke-linejoin="round" stroke-miterlimit="10" fill="none"/></g><g clip-path="url(#clip5)"><text fill="#595959" font-family="Calibri,Calibri_MSFontService,sans-serif" font-weight="400" font-size="41" transform="matrix(1 0 0 1 1047.57 971)">0</text></g><g clip-path="url(#clip6)"><text fill="#595959" font-family="Calibri,Calibri_MSFontService,sans-serif" font-weight="400" font-size="41" transform="matrix(1 0 0 1 1047.57 888)">5</text></g><g clip-path="url(#clip7)"><text fill="#595959" font-family="Calibri,Calibri_MSFontService,sans-serif" font-weight="400" font-size="41" transform="matrix(1 0 0 1 1026.67 805)">10</text></g><g clip-path="url(#clip8)"><text fill="#595959" font-family="Calibri,Calibri_MSFontService,sans-serif" font-weight="400" font-size="41" transform="matrix(1 0 0 1 1026.67 722)">15</text></g><g clip-path="url(#clip9)"><text fill="#595959" font-family="Calibri,Calibri_MSFontService,sans-serif" font-weight="400" font-size="41" transform="matrix(1 0 0 1 1026.67 640)">20</text></g><g clip-path="url(#clip10)"><text fill="#595959" font-family="Calibri,Calibri_MSFontService,sans-serif" font-weight="400" font-size="41" transform="matrix(1 0 0 1 1026.67 557)">25</text></g><g clip-path="url(#clip11)"><text fill="#595959" font-family="Calibri,Calibri_MSFontService,sans-serif" font-weight="400" font-size="41" transform="matrix(1 0 0 1 1026.67 474)">30</text></g><g clip-path="url(#clip12)"><text fill="#595959" font-family="Calibri,Calibri_MSFontService,sans-serif" font-weight="400" font-size="41" transform="matrix(1 0 0 1 1026.67 391)">35</text></g><g clip-path="url(#clip13)"><text fill="#595959" font-family="Calibri,Calibri_MSFontService,sans-serif" font-weight="400" font-size="41" transform="matrix(1 0 0 1 1202.69 1024)">2</text></g><g clip-path="url(#clip14)"><text fill="#595959" font-family="Calibri,Calibri_MSFontService,sans-serif" font-weight="400" font-size="41" transform="matrix(1 0 0 1 1415.51 1024)">3</text></g><g clip-path="url(#clip15)"><text fill="#595959" font-family="Calibri,Calibri_MSFontService,sans-serif" font-weight="400" font-size="41" transform="matrix(1 0 0 1 1628.33 1024)">4</text></g><g clip-path="url(#clip16)"><text fill="#595959" font-family="Calibri,Calibri_MSFontService,sans-serif" font-weight="400" font-size="41" transform="matrix(1 0 0 1 1841.15 1024)">5</text></g><g clip-path="url(#clip17)"><text fill="#595959" font-family="Calibri,Calibri_MSFontService,sans-serif" font-weight="400" font-size="41" transform="matrix(1 0 0 1 2053.96 1024)">6</text></g><g clip-path="url(#clip18)"><text fill="#595959" font-family="Calibri,Calibri_MSFontService,sans-serif" font-weight="400" font-size="41" transform="matrix(1 0 0 1 2266.78 1024)">7</text></g><g clip-path="url(#clip19)"><text fill="#595959" font-family="Calibri,Calibri_MSFontService,sans-serif" font-weight="400" font-size="41" transform="matrix(1 0 0 1 2479.6 1024)">8</text></g><g clip-path="url(#clip20)"><text fill="#595959" font-family="Yu Gothic,Yu Gothic_MSFontService,sans-serif" font-weight="400" font-size="64" transform="matrix(1 0 0 1 1590.04 291)">グラフ</text></g><g clip-path="url(#clip21)"><text fill="#595959" font-family="Yu Gothic,Yu Gothic_MSFontService,sans-serif" font-weight="400" font-size="64" transform="matrix(1 0 0 1 1797.04 291)">タイトル</text></g><g clip-path="url(#clip22)"><path d="M1631 1104 1719 1104" stroke="#5B9BD5" stroke-width="10.3125" stroke-linecap="round" stroke-linejoin="round" stroke-miterlimit="10" fill="none" fill-rule="evenodd"/></g><g clip-path="url(#clip23)"><text fill="#595959" font-family="Yu Gothic,Yu Gothic_MSFontService,sans-serif" font-weight="400" font-size="41" transform="matrix(1 0 0 1 1728.26 1116)">最低</text></g><g clip-path="url(#clip24)"><path d="M1849 1104 1937 1104" stroke="#ED7D31" stroke-width="10.3125" stroke-linecap="round" stroke-linejoin="round" stroke-miterlimit="10" fill="none" fill-rule="evenodd"/></g><g clip-path="url(#clip25)"><text fill="#595959" font-family="Yu Gothic,Yu Gothic_MSFontService,sans-serif" font-weight="400" font-size="41" transform="matrix(1 0 0 1 1946.43 1116)">最高</text></g><rect x="997.5" y="180.5" width="1650" height="990" stroke="#D9D9D9" stroke-width="3.4375" stroke-linejoin="round" stroke-miterlimit="10" fill="none"/></g></svg>